<?xml version="1.0" encoding="UTF-8" standalone="no"?>
<svg
   xmlns:dc="http://purl.org/dc/elements/1.1/"
   xmlns:cc="http://creativecommons.org/ns#"
   xmlns:rdf="http://www.w3.org/1999/02/22-rdf-syntax-ns#"
   xmlns:svg="http://www.w3.org/2000/svg"
   xmlns="http://www.w3.org/2000/svg"
   width="176.01953mm"
   height="300.08621mm"
   viewBox="0 0 176.01953 300.08621"
   version="1.1"
   id="svg8">
  <defs
     id="defs2">
    <style
       id="style48">.cls-1{fill:url(#linear-gradient);}.cls-2{fill:#fff;}</style>
    <linearGradient
       id="linear-gradient"
       x1="136.75"
       y1="71.959999"
       x2="0"
       y2="71.959999"
       gradientUnits="userSpaceOnUse">
      <stop
         offset="0"
         stop-color="#ffa448"
         id="stop50" />
      <stop
         offset="1"
         stop-color="#ff4459"
         id="stop52" />
    </linearGradient>
    <style
       id="style111">.cls-1{fill:url(#linear-gradient);}</style>
    <linearGradient
       id="linear-gradient-0"
       x1="136.75"
       y1="71.959999"
       x2="0"
       y2="71.959999"
       gradientUnits="userSpaceOnUse"
       gradientTransform="matrix(0.57970626,0,0,0.57970626,96.057766,146.51357)">
      <stop
         offset="0"
         stop-color="#ffa448"
         id="stop113" />
      <stop
         offset="1"
         stop-color="#ff4459"
         id="stop115" />
    </linearGradient>
  </defs>
  <metadata
     id="metadata5">
    <rdf:RDF>
      <cc:Work
         rdf:about="">
        <dc:format>image/svg+xml</dc:format>
        <dc:type
           rdf:resource="http://purl.org/dc/dcmitype/StillImage" />
        <dc:title></dc:title>
      </cc:Work>
    </rdf:RDF>
  </metadata>
  <g
     id="layer1"
     transform="translate(0.68535965,0.74251)">
    <g
       id="g12"
       transform="matrix(0.02513915,0,0,-0.02357721,-212.9687,399.53506)">
      <path
         d="m 11489.5,8335.3 v 5405.6 c 0,487.7 -395.3,883 -882.9,883 v 0 c -487.6,0 -882.93,-395.3 -882.93,-883 V 8335.3 C 8983.39,7999.1 8468.26,7253.8 8468.26,6387.8 c 0,-1180.9 957.37,-2138.3 2138.34,-2138.3 1181,0 2138.3,957.4 2138.3,2138.3 0,866 -515.1,1611.3 -1255.4,1947.5"
         style="fill:#d1f0fc;fill-opacity:1;fill-rule:nonzero;stroke:none"
         id="path14" />
      <path
         d="m 10606.6,6551.5 v 0 c 129.5,0 234.5,105 234.5,234.5 v 6732.3 c 0,129.5 -105,234.5 -234.5,234.5 v 0 c -129.5,0 -234.5,-105 -234.5,-234.5 V 6786 c 0,-129.5 105,-234.5 234.5,-234.5"
         style="fill:#96ddf8;fill-opacity:1;fill-rule:nonzero;stroke:none"
         id="path16" />
      <path
         d="m 10841.1,6615.3 v 3014.3 c 0,129.6 -105,234.6 -234.5,234.6 -129.5,0 -234.5,-105 -234.5,-234.6 V 6615.3 h 469"
         style="fill:#5cc462;fill-opacity:1;fill-rule:nonzero;stroke:none"
         id="path18" />
      <path
         d="m 9668.49,6385.9 c 0,-518.1 420.01,-938.1 938.11,-938.1 518.1,0 938.1,420 938.1,938.1 0,518.1 -420,938.1 -938.1,938.1 -518.1,0 -938.11,-420 -938.11,-938.1"
         style="fill:#5cc462;fill-opacity:1;fill-rule:nonzero;stroke:none"
         id="path20" />
      <path
         d="m 10217.9,16662.5 c 424.2,-424.2 219.5,-1678.2 219.5,-1678.2 0,0 -1254.02,-204.8 -1678.24,219.4 -424.22,424.2 -296.92,1755.7 -296.92,1755.7 0,0 1331.47,127.3 1755.66,-296.9"
         style="fill:#5cc462;fill-opacity:1;fill-rule:nonzero;stroke:none"
         id="path22" />
      <path
         d="m 10995.3,16662.5 c -424.2,-424.2 -219.5,-1678.2 -219.5,-1678.2 0,0 1254,-204.8 1678.2,219.4 424.3,424.2 297,1755.7 297,1755.7 0,0 -1331.5,127.3 -1755.7,-296.9"
         style="fill:#5cc462;fill-opacity:1;fill-rule:nonzero;stroke:none"
         id="path24" />
    </g>
    <path
       class="cls-1"
       d="m 144.23718,188.25243 29.44326,-31.47807 a 5.7970626,5.7970626 0 0 0 1.04928,-6.63183 6.5912603,6.5912603 0 0 0 -6.02314,-3.62896 h -27.8259 a 18.904222,18.904222 0 0 0 -13.80862,5.83764 l -29.025884,30.89834 a 7.2289373,7.2289373 0 0 0 0,9.95935 l 29.025884,30.90415 a 18.904222,18.904222 0 0 0 13.77963,5.83765 h 27.85489 a 6.5854633,6.5854633 0 0 0 6.02314,-3.63476 5.7970626,5.7970626 0 0 0 -1.04928,-6.62605 z m -11.59413,-31.30414 a 11.281084,11.281084 0 0 1 8.21442,-3.47824 h 26.08678 l -27.63458,29.50124 -3.40289,-3.63474 a 22.991151,22.991151 0 0 0 -12.26077,-6.78258 v 0 l -0.84639,-0.17396 a 22.608545,22.608545 0 0 0 -4.25504,-0.45216 z m -24.50998,36.39395 -4.5391,-4.75358 a 0.5275327,0.5275327 0 0 1 -0.15074,-0.35944 0.57970626,0.57970626 0 0 1 0.15074,-0.35941 l 4.5159,-4.7478 a 14.057877,14.057877 0 0 1 10.16804,-4.26663 14.579613,14.579613 0 0 1 2.89854,0.29565 l 0.84637,0.17397 v 0 a 15.553519,15.553519 0 0 1 8.27242,4.57388 l 4.05794,4.33041 -4.05794,4.33041 a 15.518737,15.518737 0 0 1 -8.27242,4.57966 l -0.84637,0.17397 a 14.220195,14.220195 0 0 1 -13.04338,-3.97098 z m 32.71862,29.69256 a 11.263693,11.263693 0 0 1 -8.21445,-3.47824 L 118.5388,204.53058 a 22.608545,22.608545 0 0 0 4.26082,-0.45218 l 0.84639,-0.17397 v 0 a 22.979556,22.979556 0 0 0 12.26077,-6.77677 l 3.40289,-3.65794 27.64039,29.56502 z"
       id="path120"
       style="fill:url(#linear-gradient-0);stroke-width:0.579706" />
  </g>
</svg>
